<?xml version="1.0" encoding="us-ascii" standalone="no"?><svg xmlns="http://www.w3.org/2000/svg" xmlns:xlink="http://www.w3.org/1999/xlink" contentStyleType="text/css" height="413px" preserveAspectRatio="none" style="width:815px;height:413px;background:#FFFFFF;" version="1.1" viewBox="0 0 815 413" width="815px" zoomAndPan="magnify"><defs/><g><line style="stroke:#181818;stroke-width:0.5;stroke-dasharray:5.0,5.0;" x1="23" x2="23" y1="81.4883" y2="332.6621"/><line style="stroke:#181818;stroke-width:0.5;stroke-dasharray:5.0,5.0;" x1="249.5" x2="249.5" y1="81.4883" y2="332.6621"/><line style="stroke:#181818;stroke-width:0.5;stroke-dasharray:5.0,5.0;" x1="498.5" x2="498.5" y1="81.4883" y2="332.6621"/><line style="stroke:#181818;stroke-width:0.5;stroke-dasharray:5.0,5.0;" x1="665.5" x2="665.5" y1="81.4883" y2="332.6621"/><text fill="#000000" font-family="sans-serif" font-size="14" lengthAdjust="spacing" textLength="31" x="5" y="78.5352">User</text><ellipse cx="23.5" cy="13.5" fill="#E2E2F0" rx="8" ry="8" style="stroke:#181818;stroke-width:0.5;"/><path d="M23.5,21.5 L23.5,48.5 M10.5,29.5 L36.5,29.5 M23.5,48.5 L10.5,63.5 M23.5,48.5 L36.5,63.5 " fill="none" style="stroke:#181818;stroke-width:0.5;"/><text fill="#000000" font-family="sans-serif" font-size="14" lengthAdjust="spacing" textLength="31" x="5" y="345.1973">User</text><ellipse cx="23.5" cy="356.6504" fill="#E2E2F0" rx="8" ry="8" style="stroke:#181818;stroke-width:0.5;"/><path d="M23.5,364.6504 L23.5,391.6504 M10.5,372.6504 L36.5,372.6504 M23.5,391.6504 L10.5,406.6504 M23.5,391.6504 L36.5,406.6504 " fill="none" style="stroke:#181818;stroke-width:0.5;"/><rect fill="#E2E2F0" height="30.4883" rx="2.5" ry="2.5" style="stroke:#181818;stroke-width:0.5;" width="136" x="181.5" y="50"/><text fill="#000000" font-family="sans-serif" font-size="14" lengthAdjust="spacing" textLength="122" x="188.5" y="70.5352">Client Application</text><rect fill="#E2E2F0" height="30.4883" rx="2.5" ry="2.5" style="stroke:#181818;stroke-width:0.5;" width="136" x="181.5" y="331.6621"/><text fill="#000000" font-family="sans-serif" font-size="14" lengthAdjust="spacing" textLength="122" x="188.5" y="352.1973">Client Application</text><rect fill="#E2E2F0" height="30.4883" rx="2.5" ry="2.5" style="stroke:#181818;stroke-width:0.5;" width="156" x="420.5" y="50"/><text fill="#000000" font-family="sans-serif" font-size="14" lengthAdjust="spacing" textLength="142" x="427.5" y="70.5352">Authorization Server</text><rect fill="#E2E2F0" height="30.4883" rx="2.5" ry="2.5" style="stroke:#181818;stroke-width:0.5;" width="156" x="420.5" y="331.6621"/><text fill="#000000" font-family="sans-serif" font-size="14" lengthAdjust="spacing" textLength="142" x="427.5" y="352.1973">Authorization Server</text><rect fill="#E2E2F0" height="30.4883" rx="2.5" ry="2.5" style="stroke:#181818;stroke-width:0.5;" width="124" x="603.5" y="50"/><text fill="#000000" font-family="sans-serif" font-size="14" lengthAdjust="spacing" textLength="110" x="610.5" y="70.5352">Resource Server</text><rect fill="#E2E2F0" height="30.4883" rx="2.5" ry="2.5" style="stroke:#181818;stroke-width:0.5;" width="124" x="603.5" y="331.6621"/><text fill="#000000" font-family="sans-serif" font-size="14" lengthAdjust="spacing" textLength="110" x="610.5" y="352.1973">Resource Server</text><polygon fill="#181818" points="237.5,108.7988,247.5,112.7988,237.5,116.7988,241.5,112.7988" style="stroke:#181818;stroke-width:1.0;"/><line style="stroke:#181818;stroke-width:1.0;" x1="23.5" x2="243.5" y1="112.7988" y2="112.7988"/><text fill="#000000" font-family="sans-serif" font-size="13" lengthAdjust="spacing" textLength="202" x="30.5" y="108.0566">Provide username and password</text><polygon fill="#181818" points="486.5,138.1094,496.5,142.1094,486.5,146.1094,490.5,142.1094" style="stroke:#181818;stroke-width:1.0;"/><line style="stroke:#181818;stroke-width:1.0;" x1="249.5" x2="492.5" y1="142.1094" y2="142.1094"/><text fill="#000000" font-family="sans-serif" font-size="13" lengthAdjust="spacing" textLength="225" x="256.5" y="137.3672">Send token request with credentials</text><line style="stroke:#181818;stroke-width:1.0;" x1="498.5" x2="540.5" y1="171.4199" y2="171.4199"/><line style="stroke:#181818;stroke-width:1.0;" x1="540.5" x2="540.5" y1="171.4199" y2="184.4199"/><line style="stroke:#181818;stroke-width:1.0;" x1="499.5" x2="540.5" y1="184.4199" y2="184.4199"/><polygon fill="#181818" points="509.5,180.4199,499.5,184.4199,509.5,188.4199,505.5,184.4199" style="stroke:#181818;stroke-width:1.0;"/><text fill="#000000" font-family="sans-serif" font-size="13" lengthAdjust="spacing" textLength="153" x="505.5" y="166.6777">Authenticate credentials</text><polygon fill="#181818" points="260.5,209.7305,250.5,213.7305,260.5,217.7305,256.5,213.7305" style="stroke:#181818;stroke-width:1.0;"/><line style="stroke:#181818;stroke-width:1.0;" x1="254.5" x2="497.5" y1="213.7305" y2="213.7305"/><text fill="#000000" font-family="sans-serif" font-size="13" lengthAdjust="spacing" textLength="127" x="266.5" y="208.9883">Return access token</text><polygon fill="#181818" points="653.5,239.041,663.5,243.041,653.5,247.041,657.5,243.041" style="stroke:#181818;stroke-width:1.0;"/><line style="stroke:#181818;stroke-width:1.0;" x1="249.5" x2="659.5" y1="243.041" y2="243.041"/><text fill="#000000" font-family="sans-serif" font-size="13" lengthAdjust="spacing" textLength="222" x="256.5" y="238.2988">Send API request with access token</text><line style="stroke:#181818;stroke-width:1.0;" x1="665.5" x2="707.5" y1="272.3516" y2="272.3516"/><line style="stroke:#181818;stroke-width:1.0;" x1="707.5" x2="707.5" y1="272.3516" y2="285.3516"/><line style="stroke:#181818;stroke-width:1.0;" x1="666.5" x2="707.5" y1="285.3516" y2="285.3516"/><polygon fill="#181818" points="676.5,281.3516,666.5,285.3516,676.5,289.3516,672.5,285.3516" style="stroke:#181818;stroke-width:1.0;"/><text fill="#000000" font-family="sans-serif" font-size="13" lengthAdjust="spacing" textLength="136" x="672.5" y="267.6094">Validate access token</text><polygon fill="#181818" points="260.5,310.6621,250.5,314.6621,260.5,318.6621,256.5,314.6621" style="stroke:#181818;stroke-width:1.0;"/><line style="stroke:#181818;stroke-width:1.0;" x1="254.5" x2="664.5" y1="314.6621" y2="314.6621"/><text fill="#000000" font-family="sans-serif" font-size="13" lengthAdjust="spacing" textLength="165" x="266.5" y="309.9199">Return requested resource</text><!--SRC=[XO-nRW8n38RtUmgBdHTWg7Jgn8Qew6ubbh2u9i5s3ecdRy85GH1gfpZEzzjVq5aKE2Z9a52C7ISC1glFYQcSOqeJEpIEOGMeiBHxTCnsZCBN6mLV93F93QuFoxKFx4bZ5aVFxBtN-A4QmVgZBTp0JkBCdY2NVi0V0WmU4gfUelYXsHR-iNDJnXV6uea229qpgS65xGXEo1USSTBXmR-cQrsfydlw8t8Nt9Db2O3EaUgozKch_rvJ6tVRNgmBzv5tGxvnOb_j_iczABQLv4kreBy0]--></g></svg>