<?xml version="1.0" encoding="us-ascii" standalone="no"?><svg xmlns="http://www.w3.org/2000/svg" xmlns:xlink="http://www.w3.org/1999/xlink" contentStyleType="text/css" height="592px" preserveAspectRatio="none" style="width:1308px;height:592px;background:#FFFFFF;" version="1.1" viewBox="0 0 1308 592" width="1308px" zoomAndPan="magnify"><defs/><g><line style="stroke:#181818;stroke-width:0.5;stroke-dasharray:5.0,5.0;" x1="23" x2="23" y1="81.4883" y2="511.8359"/><line style="stroke:#181818;stroke-width:0.5;stroke-dasharray:5.0,5.0;" x1="189.5" x2="189.5" y1="81.4883" y2="511.8359"/><line style="stroke:#181818;stroke-width:0.5;stroke-dasharray:5.0,5.0;" x1="690.5" x2="690.5" y1="81.4883" y2="511.8359"/><line style="stroke:#181818;stroke-width:0.5;stroke-dasharray:5.0,5.0;" x1="1096.5" x2="1096.5" y1="81.4883" y2="511.8359"/><line style="stroke:#181818;stroke-width:0.5;stroke-dasharray:5.0,5.0;" x1="1242.5" x2="1242.5" y1="81.4883" y2="511.8359"/><text fill="#000000" font-family="sans-serif" font-size="14" lengthAdjust="spacing" textLength="31" x="5" y="78.5352">User</text><ellipse cx="23.5" cy="13.5" fill="#E2E2F0" rx="8" ry="8" style="stroke:#181818;stroke-width:0.5;"/><path d="M23.5,21.5 L23.5,48.5 M10.5,29.5 L36.5,29.5 M23.5,48.5 L10.5,63.5 M23.5,48.5 L36.5,63.5 " fill="none" style="stroke:#181818;stroke-width:0.5;"/><text fill="#000000" font-family="sans-serif" font-size="14" lengthAdjust="spacing" textLength="31" x="5" y="524.3711">User</text><ellipse cx="23.5" cy="535.8242" fill="#E2E2F0" rx="8" ry="8" style="stroke:#181818;stroke-width:0.5;"/><path d="M23.5,543.8242 L23.5,570.8242 M10.5,551.8242 L36.5,551.8242 M23.5,570.8242 L10.5,585.8242 M23.5,570.8242 L36.5,585.8242 " fill="none" style="stroke:#181818;stroke-width:0.5;"/><rect fill="#E2E2F0" height="30.4883" rx="2.5" ry="2.5" style="stroke:#181818;stroke-width:0.5;" width="86" x="146.5" y="50"/><text fill="#000000" font-family="sans-serif" font-size="14" lengthAdjust="spacing" textLength="72" x="153.5" y="70.5352">UserAgent</text><rect fill="#E2E2F0" height="30.4883" rx="2.5" ry="2.5" style="stroke:#181818;stroke-width:0.5;" width="86" x="146.5" y="510.8359"/><text fill="#000000" font-family="sans-serif" font-size="14" lengthAdjust="spacing" textLength="72" x="153.5" y="531.3711">UserAgent</text><rect fill="#E2E2F0" height="30.4883" rx="2.5" ry="2.5" style="stroke:#181818;stroke-width:0.5;" width="54" x="663.5" y="50"/><text fill="#000000" font-family="sans-serif" font-size="14" lengthAdjust="spacing" textLength="40" x="670.5" y="70.5352">Client</text><rect fill="#E2E2F0" height="30.4883" rx="2.5" ry="2.5" style="stroke:#181818;stroke-width:0.5;" width="54" x="663.5" y="510.8359"/><text fill="#000000" font-family="sans-serif" font-size="14" lengthAdjust="spacing" textLength="40" x="670.5" y="531.3711">Client</text><rect fill="#E2E2F0" height="30.4883" rx="2.5" ry="2.5" style="stroke:#181818;stroke-width:0.5;" width="152" x="1020.5" y="50"/><text fill="#000000" font-family="sans-serif" font-size="14" lengthAdjust="spacing" textLength="138" x="1027.5" y="70.5352">AuthorizationServer</text><rect fill="#E2E2F0" height="30.4883" rx="2.5" ry="2.5" style="stroke:#181818;stroke-width:0.5;" width="152" x="1020.5" y="510.8359"/><text fill="#000000" font-family="sans-serif" font-size="14" lengthAdjust="spacing" textLength="138" x="1027.5" y="531.3711">AuthorizationServer</text><rect fill="#E2E2F0" height="30.4883" rx="2.5" ry="2.5" style="stroke:#181818;stroke-width:0.5;" width="120" x="1182.5" y="50"/><text fill="#000000" font-family="sans-serif" font-size="14" lengthAdjust="spacing" textLength="106" x="1189.5" y="70.5352">ResourceServer</text><rect fill="#E2E2F0" height="30.4883" rx="2.5" ry="2.5" style="stroke:#181818;stroke-width:0.5;" width="120" x="1182.5" y="510.8359"/><text fill="#000000" font-family="sans-serif" font-size="14" lengthAdjust="spacing" textLength="106" x="1189.5" y="531.3711">ResourceServer</text><polygon fill="#181818" points="177.5,108.7988,187.5,112.7988,177.5,116.7988,181.5,112.7988" style="stroke:#181818;stroke-width:1.0;"/><line style="stroke:#181818;stroke-width:1.0;" x1="23.5" x2="183.5" y1="112.7988" y2="112.7988"/><text fill="#000000" font-family="sans-serif" font-size="13" lengthAdjust="spacing" textLength="142" x="30.5" y="108.0566">Access the application</text><polygon fill="#181818" points="678.5,138.1094,688.5,142.1094,678.5,146.1094,682.5,142.1094" style="stroke:#181818;stroke-width:1.0;"/><line style="stroke:#181818;stroke-width:1.0;" x1="189.5" x2="684.5" y1="142.1094" y2="142.1094"/><text fill="#000000" font-family="sans-serif" font-size="13" lengthAdjust="spacing" textLength="138" x="196.5" y="137.3672">Request authorization</text><polygon fill="#181818" points="1084.5,167.4199,1094.5,171.4199,1084.5,175.4199,1088.5,171.4199" style="stroke:#181818;stroke-width:1.0;"/><line style="stroke:#181818;stroke-width:1.0;" x1="690.5" x2="1090.5" y1="171.4199" y2="171.4199"/><text fill="#000000" font-family="sans-serif" font-size="13" lengthAdjust="spacing" textLength="138" x="697.5" y="166.6777">Request authorization</text><polygon fill="#181818" points="200.5,196.7305,190.5,200.7305,200.5,204.7305,196.5,200.7305" style="stroke:#181818;stroke-width:1.0;"/><line style="stroke:#181818;stroke-width:1.0;" x1="194.5" x2="1095.5" y1="200.7305" y2="200.7305"/><text fill="#000000" font-family="sans-serif" font-size="13" lengthAdjust="spacing" textLength="128" x="206.5" y="195.9883">Display login screen</text><polygon fill="#181818" points="1084.5,226.041,1094.5,230.041,1084.5,234.041,1088.5,230.041" style="stroke:#181818;stroke-width:1.0;"/><line style="stroke:#181818;stroke-width:1.0;" x1="189.5" x2="1090.5" y1="230.041" y2="230.041"/><text fill="#000000" font-family="sans-serif" font-size="13" lengthAdjust="spacing" textLength="105" x="196.5" y="225.2988">Enter credentials</text><polygon fill="#181818" points="200.5,255.3516,190.5,259.3516,200.5,263.3516,196.5,259.3516" style="stroke:#181818;stroke-width:1.0;"/><line style="stroke:#181818;stroke-width:1.0;" x1="194.5" x2="1095.5" y1="259.3516" y2="259.3516"/><text fill="#000000" font-family="sans-serif" font-size="13" lengthAdjust="spacing" textLength="135" x="206.5" y="254.6094">Authenticate the user</text><polygon fill="#181818" points="1084.5,284.6621,1094.5,288.6621,1084.5,292.6621,1088.5,288.6621" style="stroke:#181818;stroke-width:1.0;"/><line style="stroke:#181818;stroke-width:1.0;" x1="189.5" x2="1090.5" y1="288.6621" y2="288.6621"/><text fill="#000000" font-family="sans-serif" font-size="13" lengthAdjust="spacing" textLength="107" x="196.5" y="283.9199">Authorize access</text><polygon fill="#181818" points="200.5,313.9727,190.5,317.9727,200.5,321.9727,196.5,317.9727" style="stroke:#181818;stroke-width:1.0;"/><line style="stroke:#181818;stroke-width:1.0;" x1="194.5" x2="1095.5" y1="317.9727" y2="317.9727"/><text fill="#000000" font-family="sans-serif" font-size="13" lengthAdjust="spacing" textLength="342" x="206.5" y="313.2305">Return authorization code and ID token/Access Token</text><polygon fill="#181818" points="678.5,343.2832,688.5,347.2832,678.5,351.2832,682.5,347.2832" style="stroke:#181818;stroke-width:1.0;"/><line style="stroke:#181818;stroke-width:1.0;" x1="189.5" x2="684.5" y1="347.2832" y2="347.2832"/><text fill="#000000" font-family="sans-serif" font-size="13" lengthAdjust="spacing" textLength="477" x="196.5" y="342.541">Redirect to redirect URI with authorization code and ID token/Access Token</text><polygon fill="#181818" points="34.5,372.5938,24.5,376.5938,34.5,380.5938,30.5,376.5938" style="stroke:#181818;stroke-width:1.0;"/><line style="stroke:#181818;stroke-width:1.0;" x1="28.5" x2="689.5" y1="376.5938" y2="376.5938"/><text fill="#000000" font-family="sans-serif" font-size="13" lengthAdjust="spacing" textLength="484" x="40.5" y="371.8516">Redirect to callback URL with authorization code and ID token/Access Token</text><polygon fill="#181818" points="678.5,401.9043,688.5,405.9043,678.5,409.9043,682.5,405.9043" style="stroke:#181818;stroke-width:1.0;"/><line style="stroke:#181818;stroke-width:1.0;" x1="23.5" x2="684.5" y1="405.9043" y2="405.9043"/><text fill="#000000" font-family="sans-serif" font-size="13" lengthAdjust="spacing" textLength="152" x="30.5" y="401.1621">Access the callback URL</text><polygon fill="#181818" points="1084.5,431.2148,1094.5,435.2148,1084.5,439.2148,1088.5,435.2148" style="stroke:#181818;stroke-width:1.0;"/><line style="stroke:#181818;stroke-width:1.0;" x1="690.5" x2="1090.5" y1="435.2148" y2="435.2148"/><text fill="#000000" font-family="sans-serif" font-size="13" lengthAdjust="spacing" textLength="382" x="697.5" y="430.4727">Exchange authorization code for access tokens and ID token</text><polygon fill="#181818" points="701.5,460.5254,691.5,464.5254,701.5,468.5254,697.5,464.5254" style="stroke:#181818;stroke-width:1.0;"/><line style="stroke:#181818;stroke-width:1.0;" x1="695.5" x2="1095.5" y1="464.5254" y2="464.5254"/><text fill="#000000" font-family="sans-serif" font-size="13" lengthAdjust="spacing" textLength="219" x="707.5" y="459.7832">Return access tokens and ID token</text><polygon fill="#181818" points="34.5,489.8359,24.5,493.8359,34.5,497.8359,30.5,493.8359" style="stroke:#181818;stroke-width:1.0;"/><line style="stroke:#181818;stroke-width:1.0;" x1="28.5" x2="689.5" y1="493.8359" y2="493.8359"/><text fill="#000000" font-family="sans-serif" font-size="13" lengthAdjust="spacing" textLength="169" x="40.5" y="489.0938">Display protected resource</text><!--SRC=[dPD9RiCm34NtFWKlK7IVHG4ZoI90Lsvp05PcRI62f4fqfzENyb0Fi96qEvlwUf_-f56n2t2E53AFWRNI7YstXRmYoxFgtkXbAM-uTa5_8sjddoYyBq05HTS4HVrHbi1mzp0Qx21NYc84hWdGUwDLoyf-5KdUEUy4zzPGPC2fRTQT9jrAErkNLgIBnWuwUeDVO5obBKGLY1PjhTeTBGjArAMeD9fuWrLI9BLyExL9D6aYrxs6eaJNfdY3LK7S13iF0vGh1M5BE1s0tONiVJ-Lv_IoDOjI1r8i5o0Cp-VY11-Qwx_nnm4cfpbQeJ4lg2w2Vlm7UbYueUl9jat9rtRe-Abgj1MjcR_A7uGzDdd6MJjR8nbZxEQn3LYcC-ob3uub92eb_kulotu0]--></g></svg>