<?xml version="1.0" encoding="us-ascii" standalone="no"?><svg xmlns="http://www.w3.org/2000/svg" xmlns:xlink="http://www.w3.org/1999/xlink" contentStyleType="text/css" height="534px" preserveAspectRatio="none" style="width:1262px;height:534px;background:#FFFFFF;" version="1.1" viewBox="0 0 1262 534" width="1262px" zoomAndPan="magnify"><defs/><g><line style="stroke:#181818;stroke-width:0.5;stroke-dasharray:5.0,5.0;" x1="64" x2="64" y1="81.4883" y2="453.2148"/><line style="stroke:#181818;stroke-width:0.5;stroke-dasharray:5.0,5.0;" x1="269" x2="269" y1="81.4883" y2="453.2148"/><line style="stroke:#181818;stroke-width:0.5;stroke-dasharray:5.0,5.0;" x1="402" x2="402" y1="81.4883" y2="453.2148"/><line style="stroke:#181818;stroke-width:0.5;stroke-dasharray:5.0,5.0;" x1="802" x2="802" y1="81.4883" y2="453.2148"/><line style="stroke:#181818;stroke-width:0.5;stroke-dasharray:5.0,5.0;" x1="1194" x2="1194" y1="81.4883" y2="453.2148"/><text fill="#000000" font-family="sans-serif" font-size="14" lengthAdjust="spacing" textLength="112" x="5" y="78.5352">Resource Owner</text><ellipse cx="64" cy="13.5" fill="#E2E2F0" rx="8" ry="8" style="stroke:#181818;stroke-width:0.5;"/><path d="M64,21.5 L64,48.5 M51,29.5 L77,29.5 M64,48.5 L51,63.5 M64,48.5 L77,63.5 " fill="none" style="stroke:#181818;stroke-width:0.5;"/><text fill="#000000" font-family="sans-serif" font-size="14" lengthAdjust="spacing" textLength="112" x="5" y="465.75">Resource Owner</text><ellipse cx="64" cy="477.2031" fill="#E2E2F0" rx="8" ry="8" style="stroke:#181818;stroke-width:0.5;"/><path d="M64,485.2031 L64,512.2031 M51,493.2031 L77,493.2031 M64,512.2031 L51,527.2031 M64,512.2031 L77,527.2031 " fill="none" style="stroke:#181818;stroke-width:0.5;"/><rect fill="#E2E2F0" height="30.4883" rx="2.5" ry="2.5" style="stroke:#181818;stroke-width:0.5;" width="90" x="224" y="50"/><text fill="#000000" font-family="sans-serif" font-size="14" lengthAdjust="spacing" textLength="76" x="231" y="70.5352">User Agent</text><rect fill="#E2E2F0" height="30.4883" rx="2.5" ry="2.5" style="stroke:#181818;stroke-width:0.5;" width="90" x="224" y="452.2148"/><text fill="#000000" font-family="sans-serif" font-size="14" lengthAdjust="spacing" textLength="76" x="231" y="472.75">User Agent</text><rect fill="#E2E2F0" height="30.4883" rx="2.5" ry="2.5" style="stroke:#181818;stroke-width:0.5;" width="156" x="324" y="50"/><text fill="#000000" font-family="sans-serif" font-size="14" lengthAdjust="spacing" textLength="142" x="331" y="70.5352">Authorization Server</text><rect fill="#E2E2F0" height="30.4883" rx="2.5" ry="2.5" style="stroke:#181818;stroke-width:0.5;" width="156" x="324" y="452.2148"/><text fill="#000000" font-family="sans-serif" font-size="14" lengthAdjust="spacing" textLength="142" x="331" y="472.75">Authorization Server</text><rect fill="#E2E2F0" height="30.4883" rx="2.5" ry="2.5" style="stroke:#181818;stroke-width:0.5;" width="136" x="734" y="50"/><text fill="#000000" font-family="sans-serif" font-size="14" lengthAdjust="spacing" textLength="122" x="741" y="70.5352">Client Application</text><rect fill="#E2E2F0" height="30.4883" rx="2.5" ry="2.5" style="stroke:#181818;stroke-width:0.5;" width="136" x="734" y="452.2148"/><text fill="#000000" font-family="sans-serif" font-size="14" lengthAdjust="spacing" textLength="122" x="741" y="472.75">Client Application</text><rect fill="#E2E2F0" height="30.4883" rx="2.5" ry="2.5" style="stroke:#181818;stroke-width:0.5;" width="124" x="1132" y="50"/><text fill="#000000" font-family="sans-serif" font-size="14" lengthAdjust="spacing" textLength="110" x="1139" y="70.5352">Resource Server</text><rect fill="#E2E2F0" height="30.4883" rx="2.5" ry="2.5" style="stroke:#181818;stroke-width:0.5;" width="124" x="1132" y="452.2148"/><text fill="#000000" font-family="sans-serif" font-size="14" lengthAdjust="spacing" textLength="110" x="1139" y="472.75">Resource Server</text><polygon fill="#181818" points="257,108.7988,267,112.7988,257,116.7988,261,112.7988" style="stroke:#181818;stroke-width:1.0;"/><line style="stroke:#181818;stroke-width:1.0;" x1="64" x2="263" y1="112.7988" y2="112.7988"/><text fill="#000000" font-family="sans-serif" font-size="13" lengthAdjust="spacing" textLength="181" x="71" y="108.0566">Access the client application</text><polygon fill="#181818" points="790,138.1094,800,142.1094,790,146.1094,794,142.1094" style="stroke:#181818;stroke-width:1.0;"/><line style="stroke:#181818;stroke-width:1.0;" x1="269" x2="796" y1="142.1094" y2="142.1094"/><text fill="#000000" font-family="sans-serif" font-size="13" lengthAdjust="spacing" textLength="215" x="276" y="137.3672">Redirects to the authorization URL</text><polygon fill="#181818" points="413,167.4199,403,171.4199,413,175.4199,409,171.4199" style="stroke:#181818;stroke-width:1.0;"/><line style="stroke:#181818;stroke-width:1.0;" x1="407" x2="801" y1="171.4199" y2="171.4199"/><text fill="#000000" font-family="sans-serif" font-size="13" lengthAdjust="spacing" textLength="210" x="419" y="166.6777">Requests an access authorization</text><polygon fill="#181818" points="75,196.7305,65,200.7305,75,204.7305,71,200.7305" style="stroke:#181818;stroke-width:1.0;"/><line style="stroke:#181818;stroke-width:1.0;" x1="69" x2="401" y1="200.7305" y2="200.7305"/><text fill="#000000" font-family="sans-serif" font-size="13" lengthAdjust="spacing" textLength="159" x="81" y="195.9883">Displays the login screen</text><polygon fill="#181818" points="390,226.041,400,230.041,390,234.041,394,230.041" style="stroke:#181818;stroke-width:1.0;"/><line style="stroke:#181818;stroke-width:1.0;" x1="64" x2="396" y1="230.041" y2="230.041"/><text fill="#000000" font-family="sans-serif" font-size="13" lengthAdjust="spacing" textLength="221" x="71" y="225.2988">Provides authentication credentials</text><polygon fill="#181818" points="75,255.3516,65,259.3516,75,263.3516,71,259.3516" style="stroke:#181818;stroke-width:1.0;"/><line style="stroke:#181818;stroke-width:1.0;" x1="69" x2="401" y1="259.3516" y2="259.3516"/><text fill="#000000" font-family="sans-serif" font-size="13" lengthAdjust="spacing" textLength="245" x="81" y="254.6094">Displays the consent screen for access</text><polygon fill="#181818" points="390,284.6621,400,288.6621,390,292.6621,394,288.6621" style="stroke:#181818;stroke-width:1.0;"/><line style="stroke:#181818;stroke-width:1.0;" x1="64" x2="396" y1="288.6621" y2="288.6621"/><text fill="#000000" font-family="sans-serif" font-size="13" lengthAdjust="spacing" textLength="95" x="71" y="283.9199">Grants consent</text><polygon fill="#181818" points="790,313.9727,800,317.9727,790,321.9727,794,317.9727" style="stroke:#181818;stroke-width:1.0;"/><line style="stroke:#181818;stroke-width:1.0;" x1="402" x2="796" y1="317.9727" y2="317.9727"/><text fill="#000000" font-family="sans-serif" font-size="13" lengthAdjust="spacing" textLength="189" x="409" y="313.2305">Returns an authorization code</text><polygon fill="#181818" points="413,343.2832,403,347.2832,413,351.2832,409,347.2832" style="stroke:#181818;stroke-width:1.0;"/><line style="stroke:#181818;stroke-width:1.0;" x1="407" x2="801" y1="347.2832" y2="347.2832"/><text fill="#000000" font-family="sans-serif" font-size="13" lengthAdjust="spacing" textLength="376" x="419" y="342.541">Requests an access token, providing the authorization code</text><polygon fill="#181818" points="790,372.5938,800,376.5938,790,380.5938,794,376.5938" style="stroke:#181818;stroke-width:1.0;"/><line style="stroke:#181818;stroke-width:1.0;" x1="402" x2="796" y1="376.5938" y2="376.5938"/><text fill="#000000" font-family="sans-serif" font-size="13" lengthAdjust="spacing" textLength="153" x="409" y="371.8516">Returns an access token</text><polygon fill="#181818" points="1182,401.9043,1192,405.9043,1182,409.9043,1186,405.9043" style="stroke:#181818;stroke-width:1.0;"/><line style="stroke:#181818;stroke-width:1.0;" x1="802" x2="1188" y1="405.9043" y2="405.9043"/><text fill="#000000" font-family="sans-serif" font-size="13" lengthAdjust="spacing" textLength="368" x="809" y="401.1621">Requests a protected resource, providing the access token</text><polygon fill="#181818" points="813,431.2148,803,435.2148,813,439.2148,809,435.2148" style="stroke:#181818;stroke-width:1.0;"/><line style="stroke:#181818;stroke-width:1.0;stroke-dasharray:2.0,2.0;" x1="807" x2="1193" y1="435.2148" y2="435.2148"/><text fill="#000000" font-family="sans-serif" font-size="13" lengthAdjust="spacing" textLength="194" x="819" y="430.4727">Returns the protected resource</text><!--SRC=[ZP71JiGW48RlFCMaPts1FPYGcdWnqRJf0n0wTeaDu41teq_l05MNRZKU2H__zy-WT7G4JOV1BQGHdiuMgH5UKJJQU6KZD4D00ZcXZGse08Eih-KIZuxCXuh6MUYHJfoGGDdNO3iRpW3f_MnqfZFMRlA-krn4TRqGsv9mUyTT3Y2rnX0W7X5qCQWVWnXaubhcEXmDeOwCkaohglZGFOesmx9FyDk2WLbbGHL1XGlP9tJRwG3t9lXPlPS-ivkCXQ09qUxsJwfdSYSpOX5m_RKvyAin7TKS_cVJpeOqVl712tzigVwh-e5uu-7huMefkueBsJ9zjINjHlnxJT6zehq1dwSoTjfPTGxPbrrah9gkqgJSo9-88z0wqvNhCgDZoqQJcEkKJm00]--></g></svg>