<?xml version="1.0" encoding="us-ascii" standalone="no"?><svg xmlns="http://www.w3.org/2000/svg" xmlns:xlink="http://www.w3.org/1999/xlink" contentStyleType="text/css" height="416px" preserveAspectRatio="none" style="width:779px;height:416px;background:#FFFFFF;" version="1.1" viewBox="0 0 779 416" width="779px" zoomAndPan="magnify"><defs/><g><line style="stroke:#181818;stroke-width:0.5;stroke-dasharray:5.0,5.0;" x1="64" x2="64" y1="81.4883" y2="335.9727"/><line style="stroke:#181818;stroke-width:0.5;stroke-dasharray:5.0,5.0;" x1="210" x2="210" y1="81.4883" y2="335.9727"/><line style="stroke:#181818;stroke-width:0.5;stroke-dasharray:5.0,5.0;" x1="474.5" x2="474.5" y1="81.4883" y2="335.9727"/><line style="stroke:#181818;stroke-width:0.5;stroke-dasharray:5.0,5.0;" x1="720.5" x2="720.5" y1="81.4883" y2="335.9727"/><text fill="#000000" font-family="sans-serif" font-size="14" lengthAdjust="spacing" textLength="112" x="5" y="78.5352">Resource Owner</text><ellipse cx="64" cy="13.5" fill="#E2E2F0" rx="8" ry="8" style="stroke:#181818;stroke-width:0.5;"/><path d="M64,21.5 L64,48.5 M51,29.5 L77,29.5 M64,48.5 L51,63.5 M64,48.5 L77,63.5 " fill="none" style="stroke:#181818;stroke-width:0.5;"/><text fill="#000000" font-family="sans-serif" font-size="14" lengthAdjust="spacing" textLength="112" x="5" y="348.5078">Resource Owner</text><ellipse cx="64" cy="359.9609" fill="#E2E2F0" rx="8" ry="8" style="stroke:#181818;stroke-width:0.5;"/><path d="M64,367.9609 L64,394.9609 M51,375.9609 L77,375.9609 M64,394.9609 L51,409.9609 M64,394.9609 L77,409.9609 " fill="none" style="stroke:#181818;stroke-width:0.5;"/><text fill="#000000" font-family="sans-serif" font-size="14" lengthAdjust="spacing" textLength="149" x="133" y="78.5352">Authorizationv Server</text><ellipse cx="210.5" cy="13.5" fill="#E2E2F0" rx="8" ry="8" style="stroke:#181818;stroke-width:0.5;"/><path d="M210.5,21.5 L210.5,48.5 M197.5,29.5 L223.5,29.5 M210.5,48.5 L197.5,63.5 M210.5,48.5 L223.5,63.5 " fill="none" style="stroke:#181818;stroke-width:0.5;"/><text fill="#000000" font-family="sans-serif" font-size="14" lengthAdjust="spacing" textLength="149" x="133" y="348.5078">Authorizationv Server</text><ellipse cx="210.5" cy="359.9609" fill="#E2E2F0" rx="8" ry="8" style="stroke:#181818;stroke-width:0.5;"/><path d="M210.5,367.9609 L210.5,394.9609 M197.5,375.9609 L223.5,375.9609 M210.5,394.9609 L197.5,409.9609 M210.5,394.9609 L223.5,409.9609 " fill="none" style="stroke:#181818;stroke-width:0.5;"/><text fill="#000000" font-family="sans-serif" font-size="14" lengthAdjust="spacing" textLength="122" x="410.5" y="78.5352">Client Application</text><ellipse cx="474.5" cy="13.5" fill="#E2E2F0" rx="8" ry="8" style="stroke:#181818;stroke-width:0.5;"/><path d="M474.5,21.5 L474.5,48.5 M461.5,29.5 L487.5,29.5 M474.5,48.5 L461.5,63.5 M474.5,48.5 L487.5,63.5 " fill="none" style="stroke:#181818;stroke-width:0.5;"/><text fill="#000000" font-family="sans-serif" font-size="14" lengthAdjust="spacing" textLength="122" x="410.5" y="348.5078">Client Application</text><ellipse cx="474.5" cy="359.9609" fill="#E2E2F0" rx="8" ry="8" style="stroke:#181818;stroke-width:0.5;"/><path d="M474.5,367.9609 L474.5,394.9609 M461.5,375.9609 L487.5,375.9609 M474.5,394.9609 L461.5,409.9609 M474.5,394.9609 L487.5,409.9609 " fill="none" style="stroke:#181818;stroke-width:0.5;"/><text fill="#000000" font-family="sans-serif" font-size="14" lengthAdjust="spacing" textLength="110" x="662.5" y="78.5352">Resource Server</text><ellipse cx="720.5" cy="13.5" fill="#E2E2F0" rx="8" ry="8" style="stroke:#181818;stroke-width:0.5;"/><path d="M720.5,21.5 L720.5,48.5 M707.5,29.5 L733.5,29.5 M720.5,48.5 L707.5,63.5 M720.5,48.5 L733.5,63.5 " fill="none" style="stroke:#181818;stroke-width:0.5;"/><text fill="#000000" font-family="sans-serif" font-size="14" lengthAdjust="spacing" textLength="110" x="662.5" y="348.5078">Resource Server</text><ellipse cx="720.5" cy="359.9609" fill="#E2E2F0" rx="8" ry="8" style="stroke:#181818;stroke-width:0.5;"/><path d="M720.5,367.9609 L720.5,394.9609 M707.5,375.9609 L733.5,375.9609 M720.5,394.9609 L707.5,409.9609 M720.5,394.9609 L733.5,409.9609 " fill="none" style="stroke:#181818;stroke-width:0.5;"/><polygon fill="#181818" points="198.5,108.7988,208.5,112.7988,198.5,116.7988,202.5,112.7988" style="stroke:#181818;stroke-width:1.0;"/><line style="stroke:#181818;stroke-width:1.0;" x1="64" x2="204.5" y1="112.7988" y2="112.7988"/><text fill="#000000" font-family="sans-serif" font-size="13" lengthAdjust="spacing" textLength="35" x="71" y="108.0566">Login</text><polygon fill="#181818" points="75,138.1094,65,142.1094,75,146.1094,71,142.1094" style="stroke:#181818;stroke-width:1.0;"/><line style="stroke:#181818;stroke-width:1.0;" x1="69" x2="209.5" y1="142.1094" y2="142.1094"/><text fill="#000000" font-family="sans-serif" font-size="13" lengthAdjust="spacing" textLength="99" x="81" y="137.3672">Prompt consent</text><polygon fill="#181818" points="198.5,167.4199,208.5,171.4199,198.5,175.4199,202.5,171.4199" style="stroke:#181818;stroke-width:1.0;"/><line style="stroke:#181818;stroke-width:1.0;" x1="64" x2="204.5" y1="171.4199" y2="171.4199"/><text fill="#000000" font-family="sans-serif" font-size="13" lengthAdjust="spacing" textLength="52" x="71" y="166.6777">Consent</text><polygon fill="#181818" points="462.5,196.7305,472.5,200.7305,462.5,204.7305,466.5,200.7305" style="stroke:#181818;stroke-width:1.0;"/><line style="stroke:#181818;stroke-width:1.0;" x1="210.5" x2="468.5" y1="200.7305" y2="200.7305"/><text fill="#000000" font-family="sans-serif" font-size="13" lengthAdjust="spacing" textLength="203" x="217.5" y="195.9883">Send authorization code request</text><polygon fill="#181818" points="221.5,226.041,211.5,230.041,221.5,234.041,217.5,230.041" style="stroke:#181818;stroke-width:1.0;"/><line style="stroke:#181818;stroke-width:1.0;" x1="215.5" x2="473.5" y1="230.041" y2="230.041"/><text fill="#000000" font-family="sans-serif" font-size="13" lengthAdjust="spacing" textLength="240" x="227.5" y="225.2988">Send authorization code grant request</text><polygon fill="#181818" points="462.5,255.3516,472.5,259.3516,462.5,263.3516,466.5,259.3516" style="stroke:#181818;stroke-width:1.0;"/><line style="stroke:#181818;stroke-width:1.0;" x1="210.5" x2="468.5" y1="259.3516" y2="259.3516"/><text fill="#000000" font-family="sans-serif" font-size="13" lengthAdjust="spacing" textLength="116" x="217.5" y="254.6094">Send access token</text><polygon fill="#181818" points="708.5,284.6621,718.5,288.6621,708.5,292.6621,712.5,288.6621" style="stroke:#181818;stroke-width:1.0;"/><line style="stroke:#181818;stroke-width:1.0;" x1="474.5" x2="714.5" y1="288.6621" y2="288.6621"/><text fill="#000000" font-family="sans-serif" font-size="13" lengthAdjust="spacing" textLength="222" x="481.5" y="283.9199">Send API request with access token</text><polygon fill="#181818" points="485.5,313.9727,475.5,317.9727,485.5,321.9727,481.5,317.9727" style="stroke:#181818;stroke-width:1.0;"/><line style="stroke:#181818;stroke-width:1.0;" x1="479.5" x2="719.5" y1="317.9727" y2="317.9727"/><text fill="#000000" font-family="sans-serif" font-size="13" lengthAdjust="spacing" textLength="149" x="491.5" y="313.2305">Send resource response</text><!--SRC=[TP1B2iCW48RtdcBelXV8eY1P5Ge9vWHYXaIQgXrD0Zrzfq5fKkXEdUz_ZDeaJw0Qq15E2gEVoI0qgqCw2RqDPRSDvPn6J_Qba_LkWGvf-JArt9XwikWIo10cQpQm0Aex9XIvuEZpXJCgkFd1Ei5fV5TD1ItvHqXWl8jikWFh_9BPMbPivthG-uQiwn48dpF69BXV5lyZ1zBSlF2_piPWZ93y7Pt8PggOoVPQTB3QD1vfTNIYyW5y29yztW00]--></g></svg>